<?xml version="1.0" encoding="utf-8"?>
<!-- Generator: Adobe Illustrator 15.1.0, SVG Export Plug-In . SVG Version: 6.00 Build 0)  -->
<!DOCTYPE svg PUBLIC "-//W3C//DTD SVG 1.1//EN" "http://www.w3.org/Graphics/SVG/1.1/DTD/svg11.dtd">
<svg version="1.1" id="Layer_1" xmlns="http://www.w3.org/2000/svg" xmlns:xlink="http://www.w3.org/1999/xlink" x="0px" y="0px"
	 width="100px" height="65.385px" viewBox="0 0 100 65.385" enable-background="new 0 0 100 65.385" xml:space="preserve">
<polygon fill="#2D2D2D" points="0.493,59.205 33.739,32.604 0.493,6 "/>
<polygon fill="#2D2D2D" points="67.095,32.604 100.339,59.204 100.339,6.001 "/>
<polygon fill="#2D2D2D" points="0.493,-0.192 50.621,40.374 100.339,-0.192 "/>
<polygon fill="#2D2D2D" points="50.621,44.115 37.832,35.886 0.493,65.192 100.493,65.192 63.406,35.885 "/>
<rect x="41.072" y="24.539" fill="#FFFFFF" width="18.442" height="16.352"/>
<g>
	<defs>
		<rect id="SVGID_1_" x="0.493" y="-0.192" width="100" height="65.385"/>
	</defs>
	<clipPath id="SVGID_2_">
		<use xlink:href="#SVGID_1_"  overflow="visible"/>
	</clipPath>
	<path clip-path="url(#SVGID_2_)" fill="#FFFFFF" d="M57.775,19.873H43.214l-7.283,12.625l7.28,12.619l14.564,0.012l7.28-12.627
		L57.775,19.873z"/>
	<path clip-path="url(#SVGID_2_)" fill="#2D2D2D" d="M56.757,37.78h-3.504v-4.512l0.686-1.008l-0.041-0.04l-3.382,2.181l-3.38-2.179
		l-0.04,0.042l0.685,1.004v4.512h-3.551V27.219h2.153l4.133,2.986l4.134-2.986h2.107V37.78z"/>
</g>
</svg>
