<?xml version="1.0" encoding="utf-8"?>
<!-- Generator: Adobe Illustrator 15.1.0, SVG Export Plug-In . SVG Version: 6.00 Build 0)  -->
<!DOCTYPE svg PUBLIC "-//W3C//DTD SVG 1.1//EN" "http://www.w3.org/Graphics/SVG/1.1/DTD/svg11.dtd">
<svg version="1.1" id="Layer_1" xmlns="http://www.w3.org/2000/svg" xmlns:xlink="http://www.w3.org/1999/xlink" x="0px" y="0px"
	 width="98.037px" height="70.818px" viewBox="0 0 98.037 70.818" enable-background="new 0 0 98.037 70.818" xml:space="preserve">
<path fill="#2D2D2D" d="M10.369,4.215c0.014-0.003,20.477-5.124,38.165-5.124c17.672,0,38.151,5.12,38.17,5.125
	c7.533,1.739,12.229,9.256,10.49,16.789c-1.273,5.515-5.646,9.507-10.853,10.569L69.759,20.249
	c-0.311-1.787-0.277-3.664,0.156-5.542c0.254-1.098,0.634-2.134,1.115-3.101c-6.247-0.669-14.247-1.286-22.495-1.286
	c-8.247,0-16.244,0.617-22.49,1.286c0.481,0.967,0.861,2.002,1.114,3.101c0.433,1.878,0.468,3.755,0.157,5.542L2.169,26.054
	c-1.063-1.47-1.857-3.171-2.289-5.049C-1.86,13.472,2.837,5.955,10.369,4.215 M65.362,12.603
	c3.48,13.955,11.702,26.035,22.862,34.417v22.89H8.841V47.02c11.163-8.383,19.384-20.461,22.864-34.417
	c1.8-0.15,3.685-0.288,5.629-0.401v5.83h22.399v-5.83C61.678,12.315,63.562,12.453,65.362,12.603"/>
<path fill="#FFFFFF" d="M56.288,35.654h-14.82l-7.414,12.85l7.41,12.843l14.823,0.012l7.41-12.854L56.288,35.654z"/>
<path fill="#2D2D2D" d="M54.559,38.655h-11.36l-5.682,9.849l5.679,9.845l11.363,0.008l5.679-9.85L54.559,38.655z M53.774,52.643
	h-2.733v-3.521l0.535-0.785l-0.032-0.031l-2.638,1.702l-2.637-1.701l-0.031,0.032l0.534,0.783v3.521h-2.77v-8.239h1.68l3.224,2.329
	l3.225-2.329h1.644V52.643z"/>
<rect x="-0.481" y="-0.909" fill="none" width="98.038" height="70.818"/>
</svg>
