<?xml version="1.0" encoding="utf-8"?>
<!-- Generator: Adobe Illustrator 15.1.0, SVG Export Plug-In . SVG Version: 6.00 Build 0)  -->
<!DOCTYPE svg PUBLIC "-//W3C//DTD SVG 1.1//EN" "http://www.w3.org/Graphics/SVG/1.1/DTD/svg11.dtd">
<svg version="1.1" id="Layer_1" xmlns="http://www.w3.org/2000/svg" xmlns:xlink="http://www.w3.org/1999/xlink" x="0px" y="0px"
	 width="400px" height="400px" viewBox="0 0 400 400" enable-background="new 0 0 400 400" xml:space="preserve">
<path display="none" fill-rule="evenodd" clip-rule="evenodd" fill="#A7D48F" d="M334.038,130.618l0.005,0.003l-0.005,0l0.008,0.029
	l-31.506,39.479l-15.482-57.935l46.814,18.359l0.143-0.038l-0.003,0.005L334.038,130.618z M163.223,260.649l-60.698-23.983
	l-31.27-117.014l37.337-10.031l16.573-4.453l-4.438-16.603l-9.965-37.292l-0.045-0.166L243.442,15.45l45.793,171.358l-40.616,50.893
	L163.223,260.649z M94.19,55.727l9.965,37.292l-37.354,10.036L94.19,55.727z M151.958,274.703l-74.313,93.159l-36.5-136.584
	l-0.003-0.013l47.345,18.557l63.477,24.869L151.958,274.703z M67.267,171.198l15.398,57.624l-46.657-18.437L67.267,171.198z
	 M265.342,244.261l42.696-53.556l31.499-39.507l36.471,136.479l-110.682-43.411L265.342,244.261z M174.39,274.083l71.15-19.115
	l8.54,3.349l113.169,44.386L92.754,376.449l75.93-95.189L174.39,274.083z"/>
<rect x="-196" y="208" fill-rule="evenodd" clip-rule="evenodd" fill="none" stroke="#FFFFFF" stroke-miterlimit="10" width="10" height="10"/>
<path fill-rule="evenodd" clip-rule="evenodd" fill="#95CC78" d="M264.27,367.627l-33.68-74.563
	c-1.467-3.844-0.045-9.099,3.154-11.683l22.805-18.419c3.194-2.577,6.208-8.034,6.695-12.119c0,0,3.141-26.333-40.5-80.62
	c-43.636-54.289-70.051-56.895-70.051-56.895c-4.085-0.4-10.045,1.382-13.234,3.962l-19.438,15.701
	c-3.203,2.583-8.698,2.974-12.228,0.867L39.365,87.363c-3.525-2.106-3.795-5.944-0.604-8.523l52.91-42.835
	c3.186-2.585,9.159-4.787,13.264-4.895c0,0,70.775-1.852,157.993,106.654c87.218,108.508,70.357,177.43,70.357,177.43
	c-0.981,3.994-4.394,9.377-7.588,11.955l-52.96,42.772C269.543,372.498,265.728,371.468,264.27,367.627z"/>
</svg>
